<?xml version="1.0" encoding="iso-8859-1"?>
<!-- Generator: Adobe Illustrator 16.0.0, SVG Export Plug-In . SVG Version: 6.00 Build 0)  -->
<!DOCTYPE svg PUBLIC "-//W3C//DTD SVG 1.1//EN" "http://www.w3.org/Graphics/SVG/1.1/DTD/svg11.dtd">
<svg version="1.1" id="Capa_1" xmlns="http://www.w3.org/2000/svg" xmlns:xlink="http://www.w3.org/1999/xlink" x="0px" y="0px"
	 width="22.71px" height="24.114px" viewBox="0 0 22.71 24.114" style="enable-background:new 0 0 22.71 24.114;"
	 xml:space="preserve">
<g>
	<polygon style="fill-rule:evenodd;clip-rule:evenodd;" points="15.014,16.082 15.006,16.085 15.011,16.09 	"/>
	<path style="fill-rule:evenodd;clip-rule:evenodd;" d="M22.589,16.93c-0.18-0.839-0.554-1.427-0.982-2.199
		c-0.854-0.895-1.759-1.612-3.134-1.824c-0.669-0.104-1.095-0.033-1.355-0.468c-0.277-0.46-0.147-1.144,0-1.544
		c0.114-0.301,0.295-0.571,0.454-0.85c0.145-0.253,0.197-0.524,0.352-0.745c0.117-0.169,0.112-0.377,0.173-0.567
		c0.049-0.164,0.115-0.288,0.123-0.466c0.024-0.374-0.06-0.737-0.027-1.111c-0.103-0.146-0.166-0.332-0.184-0.562
		c-0.163-0.117-0.25-0.333-0.332-0.467c-0.035-0.064-0.087-0.073-0.137-0.142c-0.784-1.043-2.001-1.792-3.37-2.247
		c-0.897-0.296-1.683-0.396-2.104-1.027c-0.339-0.504-0.317-1.08-0.559-1.73c-0.117,0.579-0.085,1.222,0.095,1.781
		c0.221,0.693,0.665,0.995,1.305,1.259c0.78,0.321,1.742,0.731,2.293,1.218c0.193,0.167,0.309,0.291,0.467,0.466
		c0.295,0.337,0.525,0.679,0.655,1.124c0.088,0.305,0.066,0.65-0.015,0.956c-0.031,0.118-0.059,0.244-0.108,0.355
		c-0.075,0.168-0.183,0.329-0.307,0.464c-0.108,0.12-0.171,0.252-0.274,0.376c-0.383,0.466-0.784,0.899-1.073,1.402
		c-0.117-0.207-0.095-0.396-0.141-0.656c-0.024-0.149-0.154-0.403-0.19-0.513c-0.105-0.352-0.182-0.622-0.323-0.89
		c-0.179-0.34-0.433-0.599-0.662-0.895c-0.239-0.312-0.443-0.615-0.724-0.893c-0.201-0.193-0.401-0.425-0.633-0.57
		c-0.454-0.286-0.887-0.614-1.341-0.903C10.17,4.83,9.794,4.62,9.399,4.441C8.933,4.229,8.502,3.965,8.045,3.738
		C7.127,2.881,6.423,1.807,6.455,0C6.223,0.598,6.282,1.95,6.406,2.522C6.49,2.905,6.631,3.287,6.783,3.601
		c0.246,0.512,0.686,1.022,1.111,1.396C8.31,5.359,8.72,5.796,9.185,6.106c0.38,0.255,0.735,0.543,1.133,0.771
		c0.303,0.175,0.601,0.363,0.858,0.601c0.159,0.146,0.232,0.312,0.31,0.507c0.129,0.302,0.306,0.58,0.391,0.899
		c0.027,0.086,0.088,0.383,0.095,0.467c0.064,0.556-0.078,1.191,0.095,1.775c-1.776-0.136-3.058-0.774-4.302-1.447
		c-0.364-0.357-0.648-0.74-0.887-1.265C6.17,6.889,6.033,4.72,4.77,3.879C4.549,3.729,4.369,3.63,4.07,3.554
		C2.705,3.205,0.914,3.566,0,4.208C0.586,4.2,1.214,4.009,1.872,4.067C2.631,4.134,3.31,4.464,3.883,4.63
		c0.556,0.543,0.874,1.188,1.075,2.01c0.242,0.978,0.34,1.868,0.608,2.668c0.26,0.763,0.644,1.481,1.122,2.103
		c0.302,0.393,0.707,0.694,1.031,0.983c0.552,0.49,1.077,0.82,1.637,1.168c0.323,0.201,0.696,0.388,0.98,0.7
		c-1.684,0.245-3.486,0.78-5.424,0.469c-0.218-0.233-0.472-0.415-0.605-0.702c-0.193-0.406-0.289-0.99-0.33-1.542
		c-0.078-1.053,0.176-2.604-0.092-3.415C3.819,8.893,3.714,8.63,3.694,8.604c-0.036-0.047-0.046-0.035-0.141-0.14
		C3.465,8.365,3.406,8.335,3.274,8.23C2.881,7.917,2.382,7.588,1.73,7.529C1.92,7.75,2.17,7.887,2.339,8.091
		c0.18,0.212,0.37,0.498,0.464,0.747c0.315,0.775-0.146,1.906-0.277,2.946c-0.014,0.118-0.085,0.474-0.092,0.562
		c-0.083,0.882,0.014,1.683,0.092,2.479c0.189,0.364,0.26,0.755,0.467,1.075c0.239,0.368,0.616,0.567,0.89,0.888
		c0.528,0.159,1.067,0.495,1.732,0.562c1.333,0.134,2.778-0.217,4.021-0.279c0.408-0.022,0.967,0.289,1.301,0.482
		c0.3,0.175,0.585,0.396,0.785,0.687c0.102,0.149,0.162,0.309,0.218,0.481c0.031,0.09,0.049,0.164,0.063,0.258
		c0.015,0.109,0.077,0.202,0.083,0.311c0.007,0.087-0.013,0.183-0.013,0.272c0.009,0.24,0.017,0.503,0.087,0.735
		c0.115,0.218,0.176,0.46,0.281,0.701c0.134,0.313,0.323,0.644,0.465,0.842c0.249,0.346,0.485,0.683,0.703,0.982
		c0.482,0.235,0.833,0.661,1.308,0.889c0.181,0.084,0.43,0.121,0.655,0.187c0.222,0.064,0.483,0.164,0.701,0.185
		c0.648,0.074,1.467,0.011,1.872-0.091c1.146-0.287,1.994-0.853,2.621-1.449c0.376-0.359,0.721-0.744,0.981-1.171
		C22.44,20.239,22.954,18.627,22.589,16.93z M17.259,14.497C17.118,14.669,17.101,14.355,17.259,14.497L17.259,14.497z
		 M14.266,17.304c-0.019,0.089-0.061-0.031-0.05-0.095C14.234,17.121,14.276,17.239,14.266,17.304z M14.124,17.491
		c0.105,0.017,0.064,0.271-0.095,0.185C14.033,17.584,14.159,17.617,14.124,17.491z M13.892,18.659
		c0.085-0.107,0.039,0.272,0.091,0.236C13.885,19.064,13.875,18.756,13.892,18.659z M15.106,22.214
		C15.208,22.072,15.409,22.268,15.106,22.214L15.106,22.214z M17.259,23.009c-0.007-0.1,0.166-0.021,0.232-0.047
		C17.501,23.063,17.325,22.984,17.259,23.009z M21.466,19.315c-0.281,0.412-0.184,0.95-0.56,1.213c0,0.048,0.057,0.037,0.093,0.049
		c-0.012,0.055-0.247,0.119-0.093,0.187c-0.07,0.024-0.171,0.062-0.095,0.234c-0.186-0.114-0.137,0.174-0.186,0.232
		c-0.021,0.023-0.063-0.079-0.046-0.092c-0.059,0.055-0.003,0.11-0.049,0.188c-0.018,0.031-0.145,0.045-0.187,0.092
		c-0.042,0.049-0.017,0.175-0.092,0.234c-0.099,0.076-0.147,0.146-0.14,0.142c-0.025,0.024-0.13,0.135-0.096,0.093
		c-0.034,0.044-0.19,0.191-0.186,0.187c-0.054,0.045-0.239,0.102-0.237,0.095c-0.007,0.009-0.039,0.134-0.046,0.139
		c-0.034,0.023-0.052-0.091-0.044-0.093c-0.102,0.044-0.19,0.204-0.236,0.235c-0.083,0.058-0.327,0.128-0.464,0.185
		c-0.074,0.03-0.555,0.12-0.704,0.235c-0.014,0.01,0.015,0.139,0,0.14c-0.073,0.017-0.014-0.129-0.046-0.14
		c-0.094-0.036-0.362,0.212-0.513,0.14c0.007-0.055,0.085-0.04,0.137-0.047c-0.291-0.168-0.576,0.077-0.885,0.047
		c-0.148-0.065,0.165-0.047,0.235-0.047c-0.387-0.043-0.581-0.285-0.985-0.187c-0.014-0.191,0.064,0.006,0.187-0.046
		c-0.039-0.055-0.06-0.128-0.046-0.233c-0.102,0.034-0.116,0.162-0.187,0.233c-0.197-0.173-0.21-0.254-0.467-0.28
		c-0.012-0.182,0.038-0.018,0.14-0.049c-0.052-0.102-0.183-0.102-0.232,0c-0.014-0.105-0.154-0.336-0.425-0.327
		c0.01-0.055,0.088-0.04,0.144-0.046c-0.103-0.042-0.081-0.199-0.237-0.188c-0.062,0.017-0.002,0.081,0.046,0.092
		c-0.105,0.088-0.159-0.132-0.091-0.279c-0.039,0.193-0.232-0.065-0.046-0.045c-0.088-0.073-0.144-0.169-0.33-0.142
		c0.002-0.09,0.105-0.269-0.043-0.327c-0.123,0.012,0.061,0.081,0,0.188c-0.179-0.151-0.27-0.422-0.239-0.89
		c-0.133,0.019-0.014,0.268-0.091,0.141c-0.031,0-0.063,0-0.095,0c0.162-0.072-0.063-0.32-0.046-0.47
		c0.054-0.13,0.019-0.481,0-0.792c-0.15,0.035,0.085,0.456-0.14,0.421c0.11-0.142,0.021-0.402,0-0.562
		c0.034-0.077,0.151-0.07,0.14-0.189c0.088,0.008-0.069-0.521-0.044-0.792c0.151-0.099,0.176,0.009,0.044-0.095
		c-0.15-0.055,0.127-0.055,0.188-0.047c-0.015-0.064-0.117-0.039-0.188-0.048c-0.15-0.055,0.127-0.052,0.188-0.044
		c-0.011-0.069-0.137-0.017-0.142-0.096c-0.007-0.198,0.074,0,0.142,0c-0.029-0.206,0.298-0.671,0.14-0.935
		c0.092-0.066,0.141-0.175,0.188-0.281c0.146,0.075-0.056,0.185-0.093,0.233c0,0.047,0.056,0.037,0.093,0.048
		c0.073-0.178,0.231-0.269,0.281-0.469c-0.141-0.018-0.095,0.152-0.141,0.232c-0.039,0.011-0.042-0.017-0.044-0.045
		c0.01-0.039-0.02-0.044-0.047-0.046c0.008-0.055,0.047-0.026,0.047,0c0.076-0.05,0.049-0.199,0.094-0.282
		c0.07,0.02,0.039,0.147,0.187,0.094c0.035-0.142-0.131-0.09-0.095-0.233c0.078-0.041,0.161-0.064,0.228-0.096
		c-0.105-0.013-0.005-0.156,0.005-0.185c0.115,0.007,0.021,0.146,0.003,0.182c0.106-0.05,0.168-0.129,0.092-0.369
		c0.06,0.115,0.19-0.024,0.14,0c0.075-0.038,0.166-0.056,0.142-0.279c0.073,0.045,0.105,0.124,0.048,0.186
		c0.144,0.022,0.174-0.126,0.046-0.139c0.046-0.146,0.123,0.052,0.186,0.044c0.007-0.1-0.039-0.148-0.14-0.138
		c0.003-0.023,0.132-0.071,0.281-0.142c-0.015,0.096-0.127,0.092-0.142,0.188c0.193-0.008,0.176-0.231,0.232-0.375
		c0.124,0.012,0.155,0.097,0.141-0.095c0.137,0.041,0.053,0.071,0.047,0.187c0.108-0.206,0.213-0.266,0.276-0.27
		c-0.007-0.046,0.103-0.102,0.1-0.15c0.025,0.071,0.161,0.038,0.186-0.047c0.053,0.039,0.176,0.01,0.141,0
		c-0.012-0.039,0.017-0.044,0.045-0.046c0.043,0.009,0.043-0.02,0.046-0.048c0.048,0.032,0.007,0.084,0.144-0.045
		c0.144,0.277,0.437-0.167,0.559-0.048c0.01-0.031,0.218-0.036,0.43-0.04c-0.07-0.009-0.126-0.034-0.102-0.1
		c0.129,0.071,0.198-0.056,0.327,0.046c-0.004,0.023-0.054,0.039-0.11,0.049c0.159-0.007,0.295-0.018,0.342-0.049
		c-0.261,0.098,0.327,0.111,0.33,0.046c0.141,0.123,0.205,0.164,0.327,0.096c0.119,0.011,0.205,0.095,0.324,0.139
		c-0.029,0.142-0.1-0.044-0.187,0c0.405,0.165,0.432,0.308,0.796,0.375c-0.081,0.187,0.144,0.402,0.376,0.328
		c0.01,0.074,0.113,0.352,0.277,0.28c0.021,0.079,0.029,0.341,0.283,0.423c0.017,0.075,0.56,1.417,0.562,2.149
		C21.565,18.604,21.39,18.962,21.466,19.315z"/>
	<path style="fill-rule:evenodd;clip-rule:evenodd;" d="M16.365,14.881c0.004,0.012,0.019,0.025,0.049,0.036
		C16.436,14.893,16.411,14.875,16.365,14.881z"/>
	<path style="fill-rule:evenodd;clip-rule:evenodd;" d="M19.88,17.491c-0.19-0.292-0.609-0.604-0.985-0.609
		c-0.3,0.81-0.823,1.179-1.869,1.17c-0.098,0.547-0.225,0.979-0.096,1.448c0.074,0.271,0.438,0.645,0.641,0.811
		c0.176,0.152,0.44,0.266,0.679,0.299c0.232,0.03,0.613-0.046,0.83-0.144c0.274-0.119,0.504-0.362,0.668-0.602
		c0.388-0.567,0.503-1.295,0.314-1.953C20.035,17.803,19.925,17.566,19.88,17.491z"/>
</g>
<g>
</g>
<g>
</g>
<g>
</g>
<g>
</g>
<g>
</g>
<g>
</g>
<g>
</g>
<g>
</g>
<g>
</g>
<g>
</g>
<g>
</g>
<g>
</g>
<g>
</g>
<g>
</g>
<g>
</g>
</svg>
